<svg width="24" height="24" viewBox="0 0 24 24" fill="none" xmlns="http://www.w3.org/2000/svg">
<g id="alert-circle-outline">
<path id="Vector" d="M21 12C21 7.03125 16.9688 3 12 3C7.03125 3 3 7.03125 3 12C3 16.9688 7.03125 21 12 21C16.9688 21 21 16.9688 21 12Z" stroke="#EA580C" stroke-width="1.99765" stroke-miterlimit="10"/>
<path id="Vector_2" d="M11.731 7.7837L12.0001 13.5001L12.2686 7.7837C12.2703 7.74716 12.2645 7.71066 12.2516 7.67644C12.2386 7.64222 12.2189 7.61099 12.1935 7.58467C12.1681 7.55834 12.1376 7.53748 12.1038 7.52334C12.0701 7.5092 12.0338 7.5021 11.9972 7.50245V7.50245C11.9611 7.50279 11.9254 7.51041 11.8923 7.52486C11.8591 7.53931 11.8292 7.56028 11.8044 7.58653C11.7795 7.61278 11.7602 7.64377 11.7476 7.67765C11.735 7.71152 11.7294 7.74759 11.731 7.7837V7.7837Z" stroke="#EA580C" stroke-width="1.99765" stroke-linecap="round" stroke-linejoin="round"/>
<g id="Vector_3">
<mask id="path-3-inside-1_6280_12796" fill="white">
<path d="M12 17.2456C11.8146 17.2456 11.6333 17.1906 11.4792 17.0876C11.325 16.9846 11.2048 16.8382 11.1339 16.6669C11.0629 16.4956 11.0443 16.3071 11.0805 16.1252C11.1167 15.9434 11.206 15.7763 11.3371 15.6452C11.4682 15.5141 11.6352 15.4248 11.8171 15.3886C11.999 15.3524 12.1875 15.371 12.3588 15.442C12.5301 15.5129 12.6765 15.6331 12.7795 15.7873C12.8825 15.9414 12.9375 16.1227 12.9375 16.3081C12.9375 16.5567 12.8387 16.7952 12.6629 16.971C12.4871 17.1468 12.2486 17.2456 12 17.2456Z"/>
</mask>
<path d="M12 17.2456C11.8146 17.2456 11.6333 17.1906 11.4792 17.0876C11.325 16.9846 11.2048 16.8382 11.1339 16.6669C11.0629 16.4956 11.0443 16.3071 11.0805 16.1252C11.1167 15.9434 11.206 15.7763 11.3371 15.6452C11.4682 15.5141 11.6352 15.4248 11.8171 15.3886C11.999 15.3524 12.1875 15.371 12.3588 15.442C12.5301 15.5129 12.6765 15.6331 12.7795 15.7873C12.8825 15.9414 12.9375 16.1227 12.9375 16.3081C12.9375 16.5567 12.8387 16.7952 12.6629 16.971C12.4871 17.1468 12.2486 17.2456 12 17.2456Z" fill="#EA580C"/>
<path d="M12 15.248C12.2097 15.248 12.4146 15.3101 12.589 15.4266L10.3693 18.7486C10.852 19.0711 11.4195 19.2433 12 19.2433V15.248ZM12.589 15.4266C12.7633 15.5431 12.8992 15.7087 12.9794 15.9024L9.28828 17.4313C9.51043 17.9677 9.88663 18.4261 10.3693 18.7486L12.589 15.4266ZM12.9794 15.9024C13.0597 16.0961 13.0807 16.3093 13.0398 16.5149L9.12125 15.7355C9.008 16.3049 9.06613 16.895 9.28828 17.4313L12.9794 15.9024ZM13.0398 16.5149C12.9989 16.7206 12.8979 16.9095 12.7496 17.0577L9.92454 14.2326C9.51405 14.6431 9.23451 15.1661 9.12125 15.7355L13.0398 16.5149ZM12.7496 17.0577C12.6014 17.206 12.4125 17.307 12.2068 17.3479L11.4274 13.4294C10.858 13.5426 10.335 13.8222 9.92454 14.2326L12.7496 17.0577ZM12.2068 17.3479C12.0012 17.3888 11.788 17.3678 11.5943 17.2876L13.1232 13.5964C12.5869 13.3742 11.9967 13.3161 11.4274 13.4294L12.2068 17.3479ZM11.5943 17.2876C11.4006 17.2073 11.235 17.0714 11.1185 16.8971L14.4405 14.6774C14.118 14.1947 13.6596 13.8185 13.1232 13.5964L11.5943 17.2876ZM11.1185 16.8971C11.002 16.7227 10.9399 16.5178 10.9399 16.3081H14.9351C14.9351 15.7276 14.763 15.1601 14.4405 14.6774L11.1185 16.8971ZM10.9399 16.3081C10.9399 16.0269 11.0515 15.7573 11.2504 15.5585L14.0755 18.3836C14.6259 17.8331 14.9351 17.0866 14.9351 16.3081H10.9399ZM11.2504 15.5585C11.4492 15.3597 11.7188 15.248 12 15.248V19.2433C12.7785 19.2433 13.525 18.934 14.0755 18.3836L11.2504 15.5585Z" fill="#EA580C" mask="url(#path-3-inside-1_6280_12796)"/>
</g>
</g>
</svg>
