<svg width="24" height="24" viewBox="0 0 24 24" fill="none" xmlns="http://www.w3.org/2000/svg">
<g id="close-circle">
<g id="Vector">
<mask id="path-1-inside-1_7530_6656" fill="white">
<path d="M12 2.25C6.62391 2.25 2.25 6.62391 2.25 12C2.25 17.3761 6.62391 21.75 12 21.75C17.3761 21.75 21.75 17.3761 21.75 12C21.75 6.62391 17.3761 2.25 12 2.25ZM15.5302 14.4698C15.6027 14.5388 15.6608 14.6216 15.7008 14.7133C15.7409 14.805 15.7622 14.9039 15.7635 15.004C15.7648 15.1041 15.746 15.2034 15.7083 15.2961C15.6706 15.3889 15.6147 15.4731 15.5439 15.5439C15.4731 15.6147 15.3889 15.6706 15.2961 15.7083C15.2034 15.746 15.1041 15.7648 15.004 15.7635C14.9039 15.7622 14.805 15.7409 14.7133 15.7008C14.6216 15.6608 14.5388 15.6027 14.4698 15.5302L12 13.0608L9.53016 15.5302C9.38836 15.6649 9.19955 15.7389 9.00398 15.7364C8.8084 15.7339 8.62155 15.6551 8.48325 15.5168C8.34495 15.3785 8.26614 15.1916 8.26364 14.996C8.26114 14.8005 8.33513 14.6116 8.46984 14.4698L10.9392 12L8.46984 9.53016C8.33513 9.38836 8.26114 9.19955 8.26364 9.00398C8.26614 8.8084 8.34495 8.62155 8.48325 8.48325C8.62155 8.34495 8.8084 8.26614 9.00398 8.26364C9.19955 8.26114 9.38836 8.33513 9.53016 8.46984L12 10.9392L14.4698 8.46984C14.6116 8.33513 14.8005 8.26114 14.996 8.26364C15.1916 8.26614 15.3785 8.34495 15.5168 8.48325C15.6551 8.62155 15.7339 8.8084 15.7364 9.00398C15.7389 9.19955 15.6649 9.38836 15.5302 9.53016L13.0608 12L15.5302 14.4698Z"/>
</mask>
<path d="M12 2.25C6.62391 2.25 2.25 6.62391 2.25 12C2.25 17.3761 6.62391 21.75 12 21.75C17.3761 21.75 21.75 17.3761 21.75 12C21.75 6.62391 17.3761 2.25 12 2.25ZM15.5302 14.4698C15.6027 14.5388 15.6608 14.6216 15.7008 14.7133C15.7409 14.805 15.7622 14.9039 15.7635 15.004C15.7648 15.1041 15.746 15.2034 15.7083 15.2961C15.6706 15.3889 15.6147 15.4731 15.5439 15.5439C15.4731 15.6147 15.3889 15.6706 15.2961 15.7083C15.2034 15.746 15.1041 15.7648 15.004 15.7635C14.9039 15.7622 14.805 15.7409 14.7133 15.7008C14.6216 15.6608 14.5388 15.6027 14.4698 15.5302L12 13.0608L9.53016 15.5302C9.38836 15.6649 9.19955 15.7389 9.00398 15.7364C8.8084 15.7339 8.62155 15.6551 8.48325 15.5168C8.34495 15.3785 8.26614 15.1916 8.26364 14.996C8.26114 14.8005 8.33513 14.6116 8.46984 14.4698L10.9392 12L8.46984 9.53016C8.33513 9.38836 8.26114 9.19955 8.26364 9.00398C8.26614 8.8084 8.34495 8.62155 8.48325 8.48325C8.62155 8.34495 8.8084 8.26614 9.00398 8.26364C9.19955 8.26114 9.38836 8.33513 9.53016 8.46984L12 10.9392L14.4698 8.46984C14.6116 8.33513 14.8005 8.26114 14.996 8.26364C15.1916 8.26614 15.3785 8.34495 15.5168 8.48325C15.6551 8.62155 15.7339 8.8084 15.7364 9.00398C15.7389 9.19955 15.6649 9.38836 15.5302 9.53016L13.0608 12L15.5302 14.4698Z" fill="#EF4444"/>
<path d="M15.5302 14.4698L14.1175 15.8823L14.1356 15.9004L14.1542 15.9181L15.5302 14.4698ZM14.4698 15.5302L15.9181 14.1542L15.9004 14.1356L15.8823 14.1175L14.4698 15.5302ZM12 13.0608L13.4124 11.6481L12 10.236L10.5876 11.6481L12 13.0608ZM9.53016 15.5302L10.9061 16.9784L10.9246 16.9609L10.9426 16.9428L9.53016 15.5302ZM8.46984 14.4698L7.05716 13.0574L7.03914 13.0754L7.02159 13.0939L8.46984 14.4698ZM10.9392 12L12.3519 13.4124L13.764 12L12.3519 10.5876L10.9392 12ZM8.46984 9.53016L7.02159 10.9061L7.03914 10.9246L7.05716 10.9426L8.46984 9.53016ZM9.53016 8.46984L10.9426 7.05716L10.9246 7.03914L10.9061 7.02159L9.53016 8.46984ZM12 10.9392L10.5876 12.3519L12 13.764L13.4124 12.3519L12 10.9392ZM14.4698 8.46984L13.0939 7.02159L13.0754 7.03914L13.0574 7.05716L14.4698 8.46984ZM15.5302 9.53016L16.9428 10.9426L16.9609 10.9246L16.9784 10.9061L15.5302 9.53016ZM13.0608 12L11.6481 10.5876L10.236 12L11.6481 13.4124L13.0608 12ZM12 0.252353C5.52064 0.252353 0.252353 5.52064 0.252353 12H4.24765C4.24765 7.72718 7.72718 4.24765 12 4.24765V0.252353ZM0.252353 12C0.252353 18.4794 5.52064 23.7476 12 23.7476V19.7524C7.72718 19.7524 4.24765 16.2728 4.24765 12H0.252353ZM12 23.7476C18.4794 23.7476 23.7476 18.4794 23.7476 12H19.7524C19.7524 16.2728 16.2728 19.7524 12 19.7524V23.7476ZM23.7476 12C23.7476 5.52064 18.4794 0.252353 12 0.252353V4.24765C16.2728 4.24765 19.7524 7.72718 19.7524 12H23.7476ZM14.1542 15.9181C14.0335 15.8034 13.937 15.6657 13.8703 15.5131L17.5314 13.9135C17.3846 13.5775 17.172 13.2742 16.9061 13.0216L14.1542 15.9181ZM13.8703 15.5131C13.8036 15.3605 13.7682 15.1961 13.766 15.0295L17.761 14.9784C17.7563 14.6117 17.6782 14.2496 17.5314 13.9135L13.8703 15.5131ZM13.766 15.0295C13.7639 14.863 13.7951 14.6978 13.8579 14.5435L17.5588 16.0488C17.6969 15.7091 17.7657 15.3451 17.761 14.9784L13.766 15.0295ZM13.8579 14.5435C13.9206 14.3892 14.0136 14.2491 14.1314 14.1314L16.9565 16.9565C17.2158 16.6971 17.4206 16.3885 17.5588 16.0488L13.8579 14.5435ZM14.1314 14.1314C14.2491 14.0136 14.3892 13.9206 14.5435 13.8579L16.0488 17.5588C16.3885 17.4206 16.6971 17.2158 16.9565 16.9565L14.1314 14.1314ZM14.5435 13.8579C14.6978 13.7951 14.863 13.7639 15.0295 13.766L14.9784 17.761C15.3451 17.7657 15.7091 17.6969 16.0488 17.5588L14.5435 13.8579ZM15.0295 13.766C15.1961 13.7682 15.3605 13.8036 15.5131 13.8703L13.9135 17.5314C14.2496 17.6782 14.6117 17.7563 14.9784 17.761L15.0295 13.766ZM15.5131 13.8703C15.6657 13.937 15.8034 14.0335 15.9181 14.1542L13.0216 16.9061C13.2742 17.172 13.5775 17.3846 13.9135 17.5314L15.5131 13.8703ZM15.8823 14.1175L13.4124 11.6481L10.5876 14.4735L13.0574 16.9428L15.8823 14.1175ZM10.5876 11.6481L8.11774 14.1175L10.9426 16.9428L13.4124 14.4735L10.5876 11.6481ZM8.15423 14.0819C8.39011 13.8578 8.70421 13.7347 9.02955 13.7389L8.9784 17.7338C9.69489 17.743 10.3866 17.4719 10.9061 16.9784L8.15423 14.0819ZM9.02955 13.7389C9.35489 13.743 9.66573 13.8741 9.8958 14.1042L7.0707 16.9293C7.57736 17.436 8.26192 17.7247 8.9784 17.7338L9.02955 13.7389ZM9.8958 14.1042C10.1259 14.3343 10.257 14.6451 10.2611 14.9705L6.26616 15.0216C6.27533 15.7381 6.56403 16.4226 7.0707 16.9293L9.8958 14.1042ZM10.2611 14.9705C10.2653 15.2958 10.1422 15.6099 9.91809 15.8458L7.02159 13.0939C6.52806 13.6134 6.25698 14.3051 6.26616 15.0216L10.2611 14.9705ZM9.88253 15.8823L12.3519 13.4124L9.52653 10.5876L7.05716 13.0574L9.88253 15.8823ZM12.3519 10.5876L9.88253 8.11774L7.05716 10.9426L9.52653 13.4124L12.3519 10.5876ZM9.91809 8.15423C10.1422 8.39012 10.2653 8.70421 10.2611 9.02955L6.26616 8.9784C6.25698 9.69488 6.52806 10.3866 7.02159 10.9061L9.91809 8.15423ZM10.2611 9.02955C10.257 9.35489 10.1259 9.66573 9.8958 9.8958L7.0707 7.0707C6.56403 7.57737 6.27533 8.26192 6.26616 8.9784L10.2611 9.02955ZM9.8958 9.8958C9.66573 10.1259 9.35489 10.257 9.02955 10.2611L8.9784 6.26616C8.26192 6.27533 7.57737 6.56403 7.0707 7.0707L9.8958 9.8958ZM9.02955 10.2611C8.70421 10.2653 8.39012 10.1422 8.15423 9.91809L10.9061 7.02159C10.3866 6.52806 9.69488 6.25698 8.9784 6.26616L9.02955 10.2611ZM8.11774 9.88253L10.5876 12.3519L13.4124 9.52653L10.9426 7.05716L8.11774 9.88253ZM13.4124 12.3519L15.8823 9.88253L13.0574 7.05716L10.5876 9.52653L13.4124 12.3519ZM15.8458 9.91809C15.6099 10.1422 15.2958 10.2653 14.9705 10.2611L15.0216 6.26616C14.3051 6.25698 13.6134 6.52806 13.0939 7.02159L15.8458 9.91809ZM14.9705 10.2611C14.6451 10.257 14.3343 10.1259 14.1042 9.8958L16.9293 7.0707C16.4226 6.56403 15.7381 6.27533 15.0216 6.26616L14.9705 10.2611ZM14.1042 9.8958C13.8741 9.66573 13.743 9.35489 13.7389 9.02955L17.7338 8.9784C17.7247 8.26192 17.436 7.57736 16.9293 7.0707L14.1042 9.8958ZM13.7389 9.02955C13.7347 8.70421 13.8578 8.39011 14.0819 8.15423L16.9784 10.9061C17.4719 10.3866 17.743 9.69489 17.7338 8.9784L13.7389 9.02955ZM14.1175 8.11774L11.6481 10.5876L14.4735 13.4124L16.9428 10.9426L14.1175 8.11774ZM11.6481 13.4124L14.1175 15.8823L16.9428 13.0574L14.4735 10.5876L11.6481 13.4124Z" fill="#EF4444" mask="url(#path-1-inside-1_7530_6656)"/>
</g>
</g>
</svg>
