<svg width="24" height="24" viewBox="0 0 24 24" fill="none" xmlns="http://www.w3.org/2000/svg">
<path d="M16.875 7.00004V2.76504L18.52 4.41104C18.5679 4.45891 18.6247 4.49688 18.6872 4.52278C18.7498 4.54869 18.8168 4.56202 18.8845 4.56202C18.9522 4.56202 19.0192 4.54869 19.0818 4.52278C19.1443 4.49688 19.2011 4.45891 19.249 4.41104C19.2969 4.36317 19.3348 4.30635 19.3607 4.24381C19.3866 4.18126 19.4 4.11423 19.4 4.04654C19.4 3.97885 19.3866 3.91181 19.3607 3.84927C19.3348 3.78673 19.2969 3.72991 19.249 3.68204L16.724 1.15704C16.6762 1.10912 16.6193 1.07109 16.5568 1.04515C16.4943 1.01921 16.4272 1.00586 16.3595 1.00586C16.2918 1.00586 16.2247 1.01921 16.1622 1.04515C16.0996 1.07109 16.0428 1.10912 15.995 1.15704L13.47 3.68204C13.3733 3.77871 13.319 3.90983 13.319 4.04654C13.319 4.18325 13.3733 4.31437 13.47 4.41104C13.5667 4.50771 13.6978 4.56202 13.8345 4.56202C13.9712 4.56202 14.1023 4.50771 14.199 4.41104L15.844 2.76504V7.00004C15.2054 7.04958 14.5774 7.19208 13.98 7.42304C12.5547 6.60644 10.8865 6.32049 9.27062 6.61583C7.65476 6.91116 6.19551 7.76873 5.15125 9.0367C4.10698 10.3047 3.54506 11.9012 3.56496 13.5437C3.58486 15.1863 4.18531 16.7687 5.25999 18.011L3.46799 19.8L1.92699 18.263C1.83032 18.1664 1.69921 18.1121 1.56249 18.1121C1.42578 18.1121 1.29466 18.1664 1.19799 18.263C1.10132 18.3597 1.04701 18.4908 1.04701 18.6275C1.04701 18.7643 1.10132 18.8954 1.19799 18.992L2.73899 20.532L1.15699 22.115C1.06513 22.2125 1.01486 22.3419 1.01684 22.4759C1.01883 22.6098 1.07291 22.7377 1.16762 22.8324C1.26234 22.9271 1.39022 22.9812 1.52415 22.9832C1.65808 22.9852 1.78751 22.9349 1.88499 22.843L3.46799 21.261L5.00799 22.8C5.05586 22.8479 5.11268 22.8859 5.17523 22.9118C5.23777 22.9377 5.3048 22.951 5.37249 22.951C5.44019 22.951 5.50722 22.9377 5.56976 22.9118C5.6323 22.8859 5.68913 22.8479 5.73699 22.8C5.78486 22.7522 5.82283 22.6953 5.84873 22.6328C5.87464 22.5703 5.88797 22.5032 5.88797 22.4355C5.88797 22.3678 5.87464 22.3008 5.84873 22.2383C5.82283 22.1757 5.78486 22.1189 5.73699 22.071L4.19999 20.532L5.98899 18.74C7.03345 19.6422 8.3228 20.2131 9.69282 20.3799C11.0628 20.5468 12.4515 20.3021 13.682 19.677C14.565 20.0669 15.5224 20.2593 16.4875 20.2408C17.4525 20.2223 18.4019 19.9934 19.2693 19.5699C20.1367 19.1465 20.9012 18.5388 21.5094 17.7894C22.1176 17.0399 22.5548 16.1666 22.7906 15.2306C23.0263 14.2946 23.0549 13.3185 22.8743 12.3703C22.6937 11.4221 22.3082 10.5248 21.7449 9.74102C21.1816 8.95724 20.4539 8.30589 19.6128 7.83246C18.7717 7.35903 17.8373 7.07495 16.875 7.00004ZM6.34699 17.675L6.33799 17.662L6.32499 17.653C5.35349 16.6804 4.75014 15.4005 4.61819 14.0321C4.48623 12.6638 4.83386 11.2921 5.60161 10.1517C6.36935 9.01141 7.50949 8.1733 8.82696 7.78079C10.1444 7.38829 11.5574 7.46579 12.824 8.00004C11.88 8.60145 11.1016 9.42979 10.5601 10.4094C10.0186 11.389 9.73113 12.4887 9.72399 13.608C9.73011 14.6707 9.98927 15.7165 10.48 16.6591C10.9708 17.6016 11.679 18.4137 12.546 19.028C11.4907 19.4132 10.3477 19.4904 9.2502 19.2509C8.15268 19.0113 7.14584 18.4648 6.34699 17.675ZM13.647 18.506C12.7757 18.0184 12.0494 17.3084 11.542 16.4485C11.0347 15.5886 10.7645 14.6095 10.759 13.611C10.7635 12.5654 11.0593 11.5416 11.6132 10.6547C12.1671 9.76781 12.9573 9.05284 13.895 8.59004C14.1947 8.79149 14.4749 9.02048 14.732 9.27404C15.3647 9.90661 15.8459 10.6743 16.1394 11.5195C16.433 12.3647 16.5312 13.2653 16.4268 14.1539C16.3224 15.0425 16.0181 15.8959 15.5366 16.65C15.0552 17.4041 14.4091 18.0394 13.647 18.508V18.506ZM16.364 19.215C15.828 19.2143 15.2949 19.1365 14.781 18.984L14.789 18.977C15.025 18.797 15.2495 18.6023 15.461 18.394C16.765 17.0865 17.4974 15.3152 17.4974 13.4685C17.4974 11.6219 16.765 9.85057 15.461 8.54304L15.423 8.50904C15.3019 8.39183 15.1768 8.27876 15.048 8.17004C15.4735 8.06524 15.9098 8.0112 16.348 8.00904H16.385C17.8711 8.01143 19.2955 8.60408 20.3446 9.65663C21.3938 10.7092 21.9819 12.1354 21.9795 13.6215C21.9771 15.1077 21.3845 16.532 20.3319 17.5812C19.2794 18.6303 17.8531 19.2184 16.367 19.216L16.364 19.215Z" fill="#737373"/>
</svg>
