<svg width="28" height="18" viewBox="0 0 28 18" fill="none" xmlns="http://www.w3.org/2000/svg">
<path fill-rule="evenodd" clip-rule="evenodd" d="M27.7799 9.1107C27.7799 13.8285 23.9626 17.653 19.2537 17.653C14.5448 17.653 10.7275 13.8285 10.7275 9.1107C10.7275 4.39289 14.5448 0.568359 19.2537 0.568359C23.9626 0.568359 27.7799 4.39289 27.7799 9.1107Z" fill="#F79F1A"/>
<path fill-rule="evenodd" clip-rule="evenodd" d="M17.2614 9.1107C17.2614 13.8285 13.4441 17.653 8.73518 17.653C4.02629 17.653 0.208984 13.8285 0.208984 9.1107C0.208984 4.39289 4.02629 0.568359 8.73518 0.568359C13.4441 0.568359 17.2614 4.39289 17.2614 9.1107Z" fill="#EA001B"/>
<path fill-rule="evenodd" clip-rule="evenodd" d="M13.9944 2.38574C12.005 3.94957 10.728 6.37965 10.728 9.10953C10.728 11.8394 12.005 14.2714 13.9944 15.8352C15.9838 14.2714 17.2608 11.8394 17.2608 9.10953C17.2608 6.37965 15.9838 3.94957 13.9944 2.38574Z" fill="#FF5F01"/>
</svg>
