<svg width="50" height="50" viewBox="0 0 50 50" fill="none" xmlns="http://www.w3.org/2000/svg">
<circle cx="25" cy="25" r="25" fill="#FFDEDE"/>
<path d="M37.2849 16.7831C32.7396 16.3326 28.1671 16.1006 23.6082 16.1006C20.9056 16.1006 18.203 16.2371 15.5004 16.5101L12.7159 16.7831" stroke="#EF4444" stroke-width="2" stroke-linecap="round" stroke-linejoin="round"/>
<path d="M20.2231 15.4045L20.5234 13.6164C20.7418 12.3197 20.9056 11.3506 23.2123 11.3506H26.7885C29.0952 11.3506 29.2727 12.3743 29.4774 13.63L29.7777 15.4045" stroke="#EF4444" stroke-width="2" stroke-linecap="round" stroke-linejoin="round"/>
<path d="M34.3503 21.0963L33.463 34.8413C33.3129 36.9842 33.1901 38.6495 29.3819 38.6495H20.6189C16.8107 38.6495 16.6879 36.9842 16.5378 34.8413L15.6505 21.0963" stroke="#EF4444" stroke-width="2" stroke-linecap="round" stroke-linejoin="round"/>
<path d="M22.7209 31.1423H27.2662" stroke="#EF4444" stroke-width="2" stroke-linecap="round" stroke-linejoin="round"/>
<path d="M21.588 25.6825H28.4128" stroke="#EF4444" stroke-width="1.5" stroke-linecap="round" stroke-linejoin="round"/>
</svg>
