<svg width="40" height="40" viewBox="0 0 40 40" fill="none" xmlns="http://www.w3.org/2000/svg">
<g id="arrow-down">
<rect x="40" y="40" width="40" height="40" rx="20" transform="rotate(-180 40 40)" fill="white"/>
<g id="vuesax/bold/arrow-down">
<g id="arrow-down_2">
<path id="Vector" d="M19.9997 37.3335C29.5677 37.3335 37.333 29.5682 37.333 20.0002C37.333 10.4322 29.5677 2.66683 19.9997 2.66683C10.4317 2.66683 2.66635 10.4322 2.66635 20.0002C2.66634 29.5682 10.4317 37.3335 19.9997 37.3335ZM13.881 18.2148L19.081 13.0148C19.341 12.7548 19.6703 12.6335 19.9997 12.6335C20.329 12.6335 20.6583 12.7548 20.9183 13.0148L26.1183 18.2148C26.621 18.7175 26.621 19.5495 26.1183 20.0522C25.6157 20.5548 24.7837 20.5548 24.281 20.0522L21.2997 17.0708L21.2997 26.0668C21.2997 26.7775 20.7103 27.3668 19.9997 27.3668C19.289 27.3668 18.6997 26.7775 18.6997 26.0668L18.6997 17.0708L15.7183 20.0522C15.2157 20.5548 14.3837 20.5548 13.881 20.0522C13.3783 19.5495 13.3783 18.7175 13.881 18.2148Z" fill="#0C0507"/>
</g>
</g>
</g>
</svg>
