<svg width="28" height="10" viewBox="0 0 28 10" fill="none" xmlns="http://www.w3.org/2000/svg">
<path fill-rule="evenodd" clip-rule="evenodd" d="M14.4842 3.11279C14.4685 4.36183 15.5884 5.05889 16.4321 5.47329C17.2989 5.89853 17.5901 6.17118 17.5867 6.55139C17.5801 7.13339 16.8953 7.3902 16.2543 7.40021C15.136 7.41771 14.4859 7.09587 13.9689 6.8524L13.5661 8.75263C14.0847 8.9936 15.045 9.20372 16.0409 9.21289C18.3783 9.21289 19.9076 8.04974 19.9159 6.24622C19.925 3.95744 16.7753 3.8307 16.7969 2.80762C16.8043 2.49745 17.0979 2.16643 17.7414 2.08222C18.0599 2.03969 18.9391 2.00717 19.9358 2.46993L20.327 0.631399C19.791 0.434622 19.102 0.246183 18.2443 0.246183C16.0442 0.246183 14.4966 1.42518 14.4842 3.11279ZM24.0862 0.404606C23.6594 0.404606 23.2997 0.655581 23.1392 1.0408L19.8001 9.07781H22.1359L22.6007 7.78292H25.4551L25.7248 9.07781H27.7835L25.987 0.404606H24.0862ZM24.413 2.74759L25.0871 6.00442H23.2409L24.413 2.74759ZM11.6522 0.404606L9.81101 9.07781H12.0368L13.8771 0.404606H11.6522ZM8.35942 0.404606L6.04266 6.30792L5.10553 1.28844C4.99553 0.728121 4.56129 0.404606 4.07908 0.404606H0.291705L0.23877 0.656414C1.01626 0.826509 1.89962 1.10083 2.43477 1.39433C2.76231 1.5736 2.85577 1.73035 2.9633 2.15642L4.73829 9.07781H7.09062L10.6969 0.404606H8.35942Z" fill="url(#paint0_linear_7929_16771)"/>
<defs>
<linearGradient id="paint0_linear_7929_16771" x1="0.286779" y1="3.0041" x2="8.07253" y2="-7.96104" gradientUnits="userSpaceOnUse">
<stop stop-color="#222357"/>
<stop offset="1" stop-color="#254AA5"/>
</linearGradient>
</defs>
</svg>
